<svg width="650" height="832" viewBox="0 0 650 832" fill="none" xmlns="http://www.w3.org/2000/svg">
<path d="M577.5 416C577.5 328.876 550.845 245.321 503.398 183.715C455.951 122.11 391.6 87.5 324.5 87.5C257.4 87.5 193.049 122.11 145.602 183.715C98.1553 245.321 71.5 328.876 71.5 416L324.5 416H577.5Z" fill="black"/>
<ellipse cx="436.353" cy="424.781" rx="30.36" ry="29.441" fill="#FF0000"/>
<ellipse cx="328.761" cy="635.516" rx="30.36" ry="29.441" fill="#FF0000"/>
<path d="M455.514 431.603C453.097 428.605 450.094 426.097 446.678 424.224C443.261 422.35 439.498 421.148 435.602 420.685C431.706 420.222 427.755 420.507 423.973 421.525C420.191 422.543 416.653 424.274 413.561 426.617C410.469 428.961 407.883 431.873 405.951 435.186C404.019 438.499 402.779 442.149 402.301 445.926C401.824 449.704 402.118 453.536 403.168 457.203C404.218 460.871 406.002 464.302 408.419 467.3L431.966 449.452L455.514 431.603Z" fill="black"/>
<ellipse cx="217.974" cy="424.781" rx="30.36" ry="29.441" fill="#FF0000"/>
<path d="M251.794 469.398C254.458 466.603 256.529 463.327 257.887 459.756C259.246 456.186 259.866 452.39 259.712 448.587C259.558 444.784 258.633 441.048 256.99 437.591C255.347 434.135 253.018 431.026 250.136 428.443C247.254 425.859 243.875 423.851 240.193 422.534C236.511 421.216 232.597 420.615 228.675 420.765C224.753 420.914 220.9 421.811 217.336 423.404C213.771 424.998 210.566 427.256 207.901 430.051L229.848 449.725L251.794 469.398Z" fill="black"/>
<path d="M178.035 247.416H167.371V251.695H177.16V255.195H167.371V260.377H178.527V264H163.256V243.848H178.035V247.416ZM185.473 264H181.576V243.848H185.473V264ZM193.293 247.32H189.342V243.725H193.293V247.32ZM189.342 249.098H193.293V264H189.342V249.098ZM205.297 256.754C205.051 256.909 204.8 257.036 204.545 257.137C204.299 257.228 203.957 257.314 203.52 257.396L202.645 257.561C201.824 257.706 201.236 257.884 200.881 258.094C200.279 258.449 199.979 259.001 199.979 259.748C199.979 260.413 200.161 260.896 200.525 261.197C200.899 261.489 201.35 261.635 201.879 261.635C202.717 261.635 203.488 261.389 204.189 260.896C204.9 260.404 205.27 259.507 205.297 258.203V256.754ZM202.932 254.936C203.652 254.844 204.167 254.73 204.477 254.594C205.033 254.357 205.311 253.988 205.311 253.486C205.311 252.876 205.096 252.456 204.668 252.229C204.249 251.992 203.629 251.873 202.809 251.873C201.888 251.873 201.236 252.101 200.854 252.557C200.58 252.894 200.398 253.35 200.307 253.924H196.547C196.629 252.62 196.993 251.549 197.641 250.711C198.671 249.398 200.439 248.742 202.945 248.742C204.577 248.742 206.026 249.066 207.293 249.713C208.56 250.36 209.193 251.581 209.193 253.377V260.213C209.193 260.687 209.202 261.261 209.221 261.936C209.248 262.446 209.326 262.792 209.453 262.975C209.581 263.157 209.772 263.307 210.027 263.426V264H205.789C205.671 263.699 205.589 263.417 205.543 263.152C205.497 262.888 205.461 262.587 205.434 262.25C204.896 262.833 204.276 263.33 203.574 263.74C202.736 264.223 201.788 264.465 200.73 264.465C199.382 264.465 198.265 264.082 197.381 263.316C196.506 262.542 196.068 261.448 196.068 260.035C196.068 258.203 196.775 256.877 198.188 256.057C198.962 255.61 200.102 255.291 201.605 255.1L202.932 254.936ZM220.773 243.875H235.061V247.416H224.957V252.051H233.803V255.551H224.957V264H220.773V243.875ZM241.459 249.098V258.08C241.459 258.928 241.559 259.566 241.76 259.994C242.115 260.751 242.812 261.129 243.852 261.129C245.182 261.129 246.094 260.591 246.586 259.516C246.841 258.932 246.969 258.162 246.969 257.205V249.098H250.92V264H247.133V261.895C247.096 261.94 247.005 262.077 246.859 262.305C246.714 262.533 246.54 262.733 246.34 262.906C245.729 263.453 245.137 263.827 244.562 264.027C243.997 264.228 243.332 264.328 242.566 264.328C240.361 264.328 238.875 263.535 238.109 261.949C237.681 261.074 237.467 259.785 237.467 258.08V249.098H241.459ZM260.572 251.914C259.67 251.914 258.968 252.197 258.467 252.762C257.975 253.327 257.665 254.092 257.537 255.059H263.594C263.53 254.029 263.215 253.249 262.65 252.721C262.094 252.183 261.402 251.914 260.572 251.914ZM260.572 248.701C261.812 248.701 262.928 248.934 263.922 249.398C264.915 249.863 265.736 250.597 266.383 251.6C266.966 252.484 267.344 253.509 267.518 254.676C267.618 255.359 267.659 256.344 267.641 257.629H257.441C257.496 259.124 257.965 260.172 258.85 260.773C259.387 261.147 260.035 261.334 260.791 261.334C261.593 261.334 262.245 261.106 262.746 260.65C263.02 260.404 263.261 260.062 263.471 259.625H267.449C267.349 260.509 266.889 261.407 266.068 262.318C264.792 263.768 263.006 264.492 260.709 264.492C258.813 264.492 257.141 263.882 255.691 262.66C254.242 261.439 253.518 259.452 253.518 256.699C253.518 254.12 254.169 252.142 255.473 250.766C256.785 249.389 258.485 248.701 260.572 248.701ZM278.537 248.742C280.077 248.742 281.335 249.148 282.311 249.959C283.295 250.761 283.787 252.096 283.787 253.965V264H279.795V254.936C279.795 254.152 279.69 253.55 279.48 253.131C279.098 252.365 278.368 251.982 277.293 251.982C275.971 251.982 275.064 252.543 274.572 253.664C274.317 254.257 274.189 255.013 274.189 255.934V264H270.307V249.125H274.066V251.299C274.568 250.533 275.042 249.982 275.488 249.645C276.29 249.043 277.307 248.742 278.537 248.742ZM285.865 252.01V249.234H287.943V245.078H291.799V249.234H294.219V252.01H291.799V259.885C291.799 260.495 291.876 260.878 292.031 261.033C292.186 261.179 292.66 261.252 293.453 261.252C293.572 261.252 293.695 261.252 293.822 261.252C293.959 261.243 294.091 261.234 294.219 261.225V264.137L292.373 264.205C290.532 264.269 289.274 263.95 288.6 263.248C288.162 262.801 287.943 262.113 287.943 261.184V252.01H285.865ZM302.6 251.914C301.697 251.914 300.995 252.197 300.494 252.762C300.002 253.327 299.692 254.092 299.564 255.059H305.621C305.557 254.029 305.243 253.249 304.678 252.721C304.122 252.183 303.429 251.914 302.6 251.914ZM302.6 248.701C303.839 248.701 304.956 248.934 305.949 249.398C306.943 249.863 307.763 250.597 308.41 251.6C308.993 252.484 309.372 253.509 309.545 254.676C309.645 255.359 309.686 256.344 309.668 257.629H299.469C299.523 259.124 299.993 260.172 300.877 260.773C301.415 261.147 302.062 261.334 302.818 261.334C303.62 261.334 304.272 261.106 304.773 260.65C305.047 260.404 305.288 260.062 305.498 259.625H309.477C309.376 260.509 308.916 261.407 308.096 262.318C306.82 263.768 305.033 264.492 302.736 264.492C300.84 264.492 299.168 263.882 297.719 262.66C296.27 261.439 295.545 259.452 295.545 256.699C295.545 254.12 296.197 252.142 297.5 250.766C298.812 249.389 300.512 248.701 302.6 248.701ZM315.342 259.242C315.424 259.935 315.602 260.427 315.875 260.719C316.358 261.238 317.251 261.498 318.555 261.498C319.32 261.498 319.926 261.384 320.373 261.156C320.829 260.928 321.057 260.587 321.057 260.131C321.057 259.693 320.874 259.361 320.51 259.133C320.145 258.905 318.792 258.513 316.449 257.957C314.763 257.538 313.574 257.014 312.881 256.385C312.188 255.765 311.842 254.872 311.842 253.705C311.842 252.329 312.38 251.148 313.455 250.164C314.54 249.171 316.062 248.674 318.021 248.674C319.881 248.674 321.394 249.048 322.561 249.795C323.736 250.533 324.411 251.814 324.584 253.637H320.688C320.633 253.135 320.492 252.739 320.264 252.447C319.835 251.919 319.106 251.654 318.076 251.654C317.229 251.654 316.622 251.786 316.258 252.051C315.902 252.315 315.725 252.625 315.725 252.98C315.725 253.427 315.916 253.751 316.299 253.951C316.682 254.161 318.035 254.521 320.359 255.031C321.909 255.396 323.071 255.947 323.846 256.686C324.611 257.433 324.994 258.367 324.994 259.488C324.994 260.965 324.443 262.173 323.34 263.111C322.246 264.041 320.551 264.506 318.254 264.506C315.911 264.506 314.18 264.014 313.059 263.029C311.947 262.036 311.391 260.773 311.391 259.242H315.342ZM340.211 247.348V252.762H344.982C345.93 252.762 346.641 252.652 347.115 252.434C347.954 252.051 348.373 251.294 348.373 250.164C348.373 248.943 347.967 248.122 347.156 247.703C346.701 247.466 346.017 247.348 345.105 247.348H340.211ZM345.98 243.848C347.393 243.875 348.478 244.048 349.234 244.367C350 244.686 350.647 245.156 351.176 245.775C351.613 246.286 351.96 246.851 352.215 247.471C352.47 248.09 352.598 248.797 352.598 249.59C352.598 250.547 352.356 251.49 351.873 252.42C351.39 253.34 350.592 253.992 349.48 254.375C350.41 254.749 351.066 255.282 351.449 255.975C351.841 256.658 352.037 257.706 352.037 259.119V260.473C352.037 261.393 352.074 262.018 352.146 262.346C352.256 262.865 352.511 263.248 352.912 263.494V264H348.277C348.15 263.553 348.059 263.193 348.004 262.92C347.895 262.355 347.835 261.776 347.826 261.184L347.799 259.311C347.781 258.025 347.544 257.169 347.088 256.74C346.641 256.312 345.798 256.098 344.559 256.098H340.211V264H336.096V243.848H345.98ZM362.605 261.252C363.745 261.252 364.62 260.846 365.23 260.035C365.841 259.224 366.146 258.071 366.146 256.576C366.146 255.081 365.841 253.933 365.23 253.131C364.62 252.32 363.745 251.914 362.605 251.914C361.466 251.914 360.587 252.32 359.967 253.131C359.356 253.933 359.051 255.081 359.051 256.576C359.051 258.071 359.356 259.224 359.967 260.035C360.587 260.846 361.466 261.252 362.605 261.252ZM370.234 256.576C370.234 258.764 369.605 260.637 368.348 262.195C367.09 263.745 365.18 264.52 362.619 264.52C360.058 264.52 358.148 263.745 356.891 262.195C355.633 260.637 355.004 258.764 355.004 256.576C355.004 254.425 355.633 252.561 356.891 250.984C358.148 249.408 360.058 248.619 362.619 248.619C365.18 248.619 367.09 249.408 368.348 250.984C369.605 252.561 370.234 254.425 370.234 256.576ZM378.533 248.742C379.436 248.742 380.238 248.943 380.939 249.344C381.641 249.736 382.211 250.283 382.648 250.984V243.875H386.6V264H382.812V261.936C382.257 262.82 381.623 263.462 380.912 263.863C380.201 264.264 379.317 264.465 378.26 264.465C376.519 264.465 375.051 263.763 373.857 262.359C372.673 260.947 372.08 259.137 372.08 256.932C372.08 254.389 372.663 252.388 373.83 250.93C375.006 249.471 376.574 248.742 378.533 248.742ZM379.381 261.184C380.484 261.184 381.322 260.773 381.896 259.953C382.471 259.133 382.758 258.071 382.758 256.768C382.758 254.945 382.298 253.641 381.377 252.857C380.812 252.383 380.156 252.146 379.408 252.146C378.269 252.146 377.43 252.579 376.893 253.445C376.364 254.302 376.1 255.368 376.1 256.645C376.1 258.021 376.368 259.124 376.906 259.953C377.453 260.773 378.278 261.184 379.381 261.184ZM398.248 248.742C398.321 248.742 398.38 248.747 398.426 248.756C398.48 248.756 398.594 248.76 398.768 248.77V252.762C398.521 252.734 398.303 252.716 398.111 252.707C397.92 252.698 397.765 252.693 397.646 252.693C396.079 252.693 395.026 253.204 394.488 254.225C394.188 254.799 394.037 255.683 394.037 256.877V264H390.113V249.098H393.832V251.695C394.434 250.702 394.958 250.023 395.404 249.658C396.133 249.048 397.081 248.742 398.248 248.742ZM401.119 249.098H405.07V264H401.119V249.098ZM407.832 243L403.676 247.088H400.859L403.484 243H407.832ZM415.256 260.801C416.167 260.801 416.938 260.459 417.566 259.775C418.195 259.083 418.51 257.984 418.51 256.48C418.51 255.068 418.209 253.992 417.607 253.254C417.015 252.516 416.217 252.146 415.215 252.146C413.848 252.146 412.904 252.789 412.385 254.074C412.111 254.758 411.975 255.601 411.975 256.604C411.975 257.469 412.12 258.24 412.412 258.914C412.941 260.172 413.889 260.801 415.256 260.801ZM414.285 248.742C415.033 248.742 415.684 248.856 416.24 249.084C417.188 249.476 417.954 250.196 418.537 251.244V249.098H422.324V263.234C422.324 265.158 422.001 266.607 421.354 267.582C420.242 269.259 418.109 270.098 414.955 270.098C413.05 270.098 411.496 269.724 410.293 268.977C409.09 268.229 408.424 267.113 408.297 265.627H412.535C412.645 266.083 412.822 266.411 413.068 266.611C413.488 266.967 414.194 267.145 415.188 267.145C416.591 267.145 417.53 266.675 418.004 265.736C418.314 265.135 418.469 264.123 418.469 262.701V261.744C418.095 262.382 417.694 262.861 417.266 263.18C416.491 263.772 415.484 264.068 414.244 264.068C412.33 264.068 410.799 263.398 409.65 262.059C408.511 260.71 407.941 258.887 407.941 256.59C407.941 254.375 408.493 252.516 409.596 251.012C410.699 249.499 412.262 248.742 414.285 248.742ZM429.857 249.098V258.08C429.857 258.928 429.958 259.566 430.158 259.994C430.514 260.751 431.211 261.129 432.25 261.129C433.581 261.129 434.492 260.591 434.984 259.516C435.24 258.932 435.367 258.162 435.367 257.205V249.098H439.318V264H435.531V261.895C435.495 261.94 435.404 262.077 435.258 262.305C435.112 262.533 434.939 262.733 434.738 262.906C434.128 263.453 433.535 263.827 432.961 264.027C432.396 264.228 431.73 264.328 430.965 264.328C428.759 264.328 427.273 263.535 426.508 261.949C426.079 261.074 425.865 259.785 425.865 258.08V249.098H429.857ZM448.971 251.914C448.068 251.914 447.367 252.197 446.865 252.762C446.373 253.327 446.063 254.092 445.936 255.059H451.992C451.928 254.029 451.614 253.249 451.049 252.721C450.493 252.183 449.8 251.914 448.971 251.914ZM448.971 248.701C450.21 248.701 451.327 248.934 452.32 249.398C453.314 249.863 454.134 250.597 454.781 251.6C455.365 252.484 455.743 253.509 455.916 254.676C456.016 255.359 456.057 256.344 456.039 257.629H445.84C445.895 259.124 446.364 260.172 447.248 260.773C447.786 261.147 448.433 261.334 449.189 261.334C449.992 261.334 450.643 261.106 451.145 260.65C451.418 260.404 451.66 260.062 451.869 259.625H455.848C455.747 260.509 455.287 261.407 454.467 262.318C453.191 263.768 451.404 264.492 449.107 264.492C447.212 264.492 445.539 263.882 444.09 262.66C442.641 261.439 441.916 259.452 441.916 256.699C441.916 254.12 442.568 252.142 443.871 250.766C445.184 249.389 446.883 248.701 448.971 248.701ZM457.83 252.27V249.098H469.916V252.338L462.355 260.801H470.176V264H457.311V260.965L464.953 252.27H457.83ZM164.352 286.445C164.406 287.422 164.637 288.215 165.043 288.824C165.816 289.965 167.18 290.535 169.133 290.535C170.008 290.535 170.805 290.41 171.523 290.16C172.914 289.676 173.609 288.809 173.609 287.559C173.609 286.621 173.316 285.953 172.73 285.555C172.137 285.164 171.207 284.824 169.941 284.535L167.609 284.008C166.086 283.664 165.008 283.285 164.375 282.871C163.281 282.152 162.734 281.078 162.734 279.648C162.734 278.102 163.27 276.832 164.34 275.84C165.41 274.848 166.926 274.352 168.887 274.352C170.691 274.352 172.223 274.789 173.48 275.664C174.746 276.531 175.379 277.922 175.379 279.836H173.188C173.07 278.914 172.82 278.207 172.438 277.715C171.727 276.816 170.52 276.367 168.816 276.367C167.441 276.367 166.453 276.656 165.852 277.234C165.25 277.812 164.949 278.484 164.949 279.25C164.949 280.094 165.301 280.711 166.004 281.102C166.465 281.352 167.508 281.664 169.133 282.039L171.547 282.59C172.711 282.855 173.609 283.219 174.242 283.68C175.336 284.484 175.883 285.652 175.883 287.184C175.883 289.09 175.188 290.453 173.797 291.273C172.414 292.094 170.805 292.504 168.969 292.504C166.828 292.504 165.152 291.957 163.941 290.863C162.73 289.777 162.137 288.305 162.16 286.445H164.352ZM178.555 279.508H180.699V292H178.555V279.508ZM178.555 274.785H180.699V277.176H178.555V274.785ZM185.152 288.062C185.215 288.766 185.391 289.305 185.68 289.68C186.211 290.359 187.133 290.699 188.445 290.699C189.227 290.699 189.914 290.531 190.508 290.195C191.102 289.852 191.398 289.324 191.398 288.613C191.398 288.074 191.16 287.664 190.684 287.383C190.379 287.211 189.777 287.012 188.879 286.785L187.203 286.363C186.133 286.098 185.344 285.801 184.836 285.473C183.93 284.902 183.477 284.113 183.477 283.105C183.477 281.918 183.902 280.957 184.754 280.223C185.613 279.488 186.766 279.121 188.211 279.121C190.102 279.121 191.465 279.676 192.301 280.785C192.824 281.488 193.078 282.246 193.062 283.059H191.07C191.031 282.582 190.863 282.148 190.566 281.758C190.082 281.203 189.242 280.926 188.047 280.926C187.25 280.926 186.645 281.078 186.23 281.383C185.824 281.688 185.621 282.09 185.621 282.59C185.621 283.137 185.891 283.574 186.43 283.902C186.742 284.098 187.203 284.27 187.812 284.418L189.207 284.758C190.723 285.125 191.738 285.48 192.254 285.824C193.074 286.363 193.484 287.211 193.484 288.367C193.484 289.484 193.059 290.449 192.207 291.262C191.363 292.074 190.074 292.48 188.34 292.48C186.473 292.48 185.148 292.059 184.367 291.215C183.594 290.363 183.18 289.312 183.125 288.062H185.152ZM196.32 275.945H198.453V279.449H200.457V281.172H198.453V289.363C198.453 289.801 198.602 290.094 198.898 290.242C199.062 290.328 199.336 290.371 199.719 290.371C199.82 290.371 199.93 290.371 200.047 290.371C200.164 290.363 200.301 290.352 200.457 290.336V292C200.215 292.07 199.961 292.121 199.695 292.152C199.438 292.184 199.156 292.199 198.852 292.199C197.867 292.199 197.199 291.949 196.848 291.449C196.496 290.941 196.32 290.285 196.32 289.48V281.172H194.621V279.449H196.32V275.945ZM203.082 289.445H205.531V292H203.082V289.445ZM217.273 285.871C217.273 287.215 217.559 288.34 218.129 289.246C218.699 290.152 219.613 290.605 220.871 290.605C221.848 290.605 222.648 290.188 223.273 289.352C223.906 288.508 224.223 287.301 224.223 285.73C224.223 284.145 223.898 282.973 223.25 282.215C222.602 281.449 221.801 281.066 220.848 281.066C219.785 281.066 218.922 281.473 218.258 282.285C217.602 283.098 217.273 284.293 217.273 285.871ZM220.449 279.227C221.41 279.227 222.215 279.43 222.863 279.836C223.238 280.07 223.664 280.48 224.141 281.066V274.727H226.168V292H224.27V290.254C223.777 291.027 223.195 291.586 222.523 291.93C221.852 292.273 221.082 292.445 220.215 292.445C218.816 292.445 217.605 291.859 216.582 290.688C215.559 289.508 215.047 287.941 215.047 285.988C215.047 284.16 215.512 282.578 216.441 281.242C217.379 279.898 218.715 279.227 220.449 279.227ZM234.523 279.168C235.414 279.168 236.277 279.379 237.113 279.801C237.949 280.215 238.586 280.754 239.023 281.418C239.445 282.051 239.727 282.789 239.867 283.633C239.992 284.211 240.055 285.133 240.055 286.398H230.855C230.895 287.672 231.195 288.695 231.758 289.469C232.32 290.234 233.191 290.617 234.371 290.617C235.473 290.617 236.352 290.254 237.008 289.527C237.383 289.105 237.648 288.617 237.805 288.062H239.879C239.824 288.523 239.641 289.039 239.328 289.609C239.023 290.172 238.68 290.633 238.297 290.992C237.656 291.617 236.863 292.039 235.918 292.258C235.41 292.383 234.836 292.445 234.195 292.445C232.633 292.445 231.309 291.879 230.223 290.746C229.137 289.605 228.594 288.012 228.594 285.965C228.594 283.949 229.141 282.312 230.234 281.055C231.328 279.797 232.758 279.168 234.523 279.168ZM237.887 284.723C237.801 283.809 237.602 283.078 237.289 282.531C236.711 281.516 235.746 281.008 234.395 281.008C233.426 281.008 232.613 281.359 231.957 282.062C231.301 282.758 230.953 283.645 230.914 284.723H237.887ZM257.621 282.672C258.715 282.672 259.578 282.453 260.211 282.016C260.852 281.578 261.172 280.789 261.172 279.648C261.172 278.422 260.727 277.586 259.836 277.141C259.359 276.906 258.723 276.789 257.926 276.789H252.23V282.672H257.621ZM249.898 274.785H257.867C259.18 274.785 260.262 274.977 261.113 275.359C262.73 276.094 263.539 277.449 263.539 279.426C263.539 280.457 263.324 281.301 262.895 281.957C262.473 282.613 261.879 283.141 261.113 283.539C261.785 283.812 262.289 284.172 262.625 284.617C262.969 285.062 263.16 285.785 263.199 286.785L263.281 289.094C263.305 289.75 263.359 290.238 263.445 290.559C263.586 291.105 263.836 291.457 264.195 291.613V292H261.336C261.258 291.852 261.195 291.66 261.148 291.426C261.102 291.191 261.062 290.738 261.031 290.066L260.891 287.195C260.836 286.07 260.418 285.316 259.637 284.934C259.191 284.723 258.492 284.617 257.539 284.617H252.23V292H249.898V274.785ZM271.906 279.168C272.797 279.168 273.66 279.379 274.496 279.801C275.332 280.215 275.969 280.754 276.406 281.418C276.828 282.051 277.109 282.789 277.25 283.633C277.375 284.211 277.438 285.133 277.438 286.398H268.238C268.277 287.672 268.578 288.695 269.141 289.469C269.703 290.234 270.574 290.617 271.754 290.617C272.855 290.617 273.734 290.254 274.391 289.527C274.766 289.105 275.031 288.617 275.188 288.062H277.262C277.207 288.523 277.023 289.039 276.711 289.609C276.406 290.172 276.062 290.633 275.68 290.992C275.039 291.617 274.246 292.039 273.301 292.258C272.793 292.383 272.219 292.445 271.578 292.445C270.016 292.445 268.691 291.879 267.605 290.746C266.52 289.605 265.977 288.012 265.977 285.965C265.977 283.949 266.523 282.312 267.617 281.055C268.711 279.797 270.141 279.168 271.906 279.168ZM275.27 284.723C275.184 283.809 274.984 283.078 274.672 282.531C274.094 281.516 273.129 281.008 271.777 281.008C270.809 281.008 269.996 281.359 269.34 282.062C268.684 282.758 268.336 283.645 268.297 284.723H275.27ZM285.336 290.582C286.32 290.582 287.137 290.172 287.785 289.352C288.441 288.523 288.77 287.289 288.77 285.648C288.77 284.648 288.625 283.789 288.336 283.07C287.789 281.688 286.789 280.996 285.336 280.996C283.875 280.996 282.875 281.727 282.336 283.188C282.047 283.969 281.902 284.961 281.902 286.164C281.902 287.133 282.047 287.957 282.336 288.637C282.883 289.934 283.883 290.582 285.336 290.582ZM279.875 279.508H281.926V281.172C282.348 280.602 282.809 280.16 283.309 279.848C284.02 279.379 284.855 279.145 285.816 279.145C287.238 279.145 288.445 279.691 289.438 280.785C290.43 281.871 290.926 283.426 290.926 285.449C290.926 288.184 290.211 290.137 288.781 291.309C287.875 292.051 286.82 292.422 285.617 292.422C284.672 292.422 283.879 292.215 283.238 291.801C282.863 291.566 282.445 291.164 281.984 290.594V297.004H279.875V279.508ZM293.457 279.449H295.461V281.617C295.625 281.195 296.027 280.684 296.668 280.082C297.309 279.473 298.047 279.168 298.883 279.168C298.922 279.168 298.988 279.172 299.082 279.18C299.176 279.188 299.336 279.203 299.562 279.227V281.453C299.438 281.43 299.32 281.414 299.211 281.406C299.109 281.398 298.996 281.395 298.871 281.395C297.809 281.395 296.992 281.738 296.422 282.426C295.852 283.105 295.566 283.891 295.566 284.781V292H293.457V279.449ZM306.617 279.168C307.508 279.168 308.371 279.379 309.207 279.801C310.043 280.215 310.68 280.754 311.117 281.418C311.539 282.051 311.82 282.789 311.961 283.633C312.086 284.211 312.148 285.133 312.148 286.398H302.949C302.988 287.672 303.289 288.695 303.852 289.469C304.414 290.234 305.285 290.617 306.465 290.617C307.566 290.617 308.445 290.254 309.102 289.527C309.477 289.105 309.742 288.617 309.898 288.062H311.973C311.918 288.523 311.734 289.039 311.422 289.609C311.117 290.172 310.773 290.633 310.391 290.992C309.75 291.617 308.957 292.039 308.012 292.258C307.504 292.383 306.93 292.445 306.289 292.445C304.727 292.445 303.402 291.879 302.316 290.746C301.23 289.605 300.688 288.012 300.688 285.965C300.688 283.949 301.234 282.312 302.328 281.055C303.422 279.797 304.852 279.168 306.617 279.168ZM309.98 284.723C309.895 283.809 309.695 283.078 309.383 282.531C308.805 281.516 307.84 281.008 306.488 281.008C305.52 281.008 304.707 281.359 304.051 282.062C303.395 282.758 303.047 283.645 303.008 284.723H309.98ZM316.004 288.062C316.066 288.766 316.242 289.305 316.531 289.68C317.062 290.359 317.984 290.699 319.297 290.699C320.078 290.699 320.766 290.531 321.359 290.195C321.953 289.852 322.25 289.324 322.25 288.613C322.25 288.074 322.012 287.664 321.535 287.383C321.23 287.211 320.629 287.012 319.73 286.785L318.055 286.363C316.984 286.098 316.195 285.801 315.688 285.473C314.781 284.902 314.328 284.113 314.328 283.105C314.328 281.918 314.754 280.957 315.605 280.223C316.465 279.488 317.617 279.121 319.062 279.121C320.953 279.121 322.316 279.676 323.152 280.785C323.676 281.488 323.93 282.246 323.914 283.059H321.922C321.883 282.582 321.715 282.148 321.418 281.758C320.934 281.203 320.094 280.926 318.898 280.926C318.102 280.926 317.496 281.078 317.082 281.383C316.676 281.688 316.473 282.09 316.473 282.59C316.473 283.137 316.742 283.574 317.281 283.902C317.594 284.098 318.055 284.27 318.664 284.418L320.059 284.758C321.574 285.125 322.59 285.48 323.105 285.824C323.926 286.363 324.336 287.211 324.336 288.367C324.336 289.484 323.91 290.449 323.059 291.262C322.215 292.074 320.926 292.48 319.191 292.48C317.324 292.48 316 292.059 315.219 291.215C314.445 290.363 314.031 289.312 313.977 288.062H316.004ZM331.977 279.168C332.867 279.168 333.73 279.379 334.566 279.801C335.402 280.215 336.039 280.754 336.477 281.418C336.898 282.051 337.18 282.789 337.32 283.633C337.445 284.211 337.508 285.133 337.508 286.398H328.309C328.348 287.672 328.648 288.695 329.211 289.469C329.773 290.234 330.645 290.617 331.824 290.617C332.926 290.617 333.805 290.254 334.461 289.527C334.836 289.105 335.102 288.617 335.258 288.062H337.332C337.277 288.523 337.094 289.039 336.781 289.609C336.477 290.172 336.133 290.633 335.75 290.992C335.109 291.617 334.316 292.039 333.371 292.258C332.863 292.383 332.289 292.445 331.648 292.445C330.086 292.445 328.762 291.879 327.676 290.746C326.59 289.605 326.047 288.012 326.047 285.965C326.047 283.949 326.594 282.312 327.688 281.055C328.781 279.797 330.211 279.168 331.977 279.168ZM335.34 284.723C335.254 283.809 335.055 283.078 334.742 282.531C334.164 281.516 333.199 281.008 331.848 281.008C330.879 281.008 330.066 281.359 329.41 282.062C328.754 282.758 328.406 283.645 328.367 284.723H335.34ZM340.109 279.449H342.113V281.23C342.707 280.496 343.336 279.969 344 279.648C344.664 279.328 345.402 279.168 346.215 279.168C347.996 279.168 349.199 279.789 349.824 281.031C350.168 281.711 350.34 282.684 350.34 283.949V292H348.195V284.09C348.195 283.324 348.082 282.707 347.855 282.238C347.48 281.457 346.801 281.066 345.816 281.066C345.316 281.066 344.906 281.117 344.586 281.219C344.008 281.391 343.5 281.734 343.062 282.25C342.711 282.664 342.48 283.094 342.371 283.539C342.27 283.977 342.219 284.605 342.219 285.426V292H340.109V279.449ZM353.891 275.945H356.023V279.449H358.027V281.172H356.023V289.363C356.023 289.801 356.172 290.094 356.469 290.242C356.633 290.328 356.906 290.371 357.289 290.371C357.391 290.371 357.5 290.371 357.617 290.371C357.734 290.363 357.871 290.352 358.027 290.336V292C357.785 292.07 357.531 292.121 357.266 292.152C357.008 292.184 356.727 292.199 356.422 292.199C355.438 292.199 354.77 291.949 354.418 291.449C354.066 290.941 353.891 290.285 353.891 289.48V281.172H352.191V279.449H353.891V275.945ZM361.766 288.66C361.766 289.27 361.988 289.75 362.434 290.102C362.879 290.453 363.406 290.629 364.016 290.629C364.758 290.629 365.477 290.457 366.172 290.113C367.344 289.543 367.93 288.609 367.93 287.312V285.613C367.672 285.777 367.34 285.914 366.934 286.023C366.527 286.133 366.129 286.211 365.738 286.258L364.461 286.422C363.695 286.523 363.121 286.684 362.738 286.902C362.09 287.27 361.766 287.855 361.766 288.66ZM366.875 284.395C367.359 284.332 367.684 284.129 367.848 283.785C367.941 283.598 367.988 283.328 367.988 282.977C367.988 282.258 367.73 281.738 367.215 281.418C366.707 281.09 365.977 280.926 365.023 280.926C363.922 280.926 363.141 281.223 362.68 281.816C362.422 282.145 362.254 282.633 362.176 283.281H360.207C360.246 281.734 360.746 280.66 361.707 280.059C362.676 279.449 363.797 279.145 365.07 279.145C366.547 279.145 367.746 279.426 368.668 279.988C369.582 280.551 370.039 281.426 370.039 282.613V289.844C370.039 290.062 370.082 290.238 370.168 290.371C370.262 290.504 370.453 290.57 370.742 290.57C370.836 290.57 370.941 290.566 371.059 290.559C371.176 290.543 371.301 290.523 371.434 290.5V292.059C371.105 292.152 370.855 292.211 370.684 292.234C370.512 292.258 370.277 292.27 369.98 292.27C369.254 292.27 368.727 292.012 368.398 291.496C368.227 291.223 368.105 290.836 368.035 290.336C367.605 290.898 366.988 291.387 366.184 291.801C365.379 292.215 364.492 292.422 363.523 292.422C362.359 292.422 361.406 292.07 360.664 291.367C359.93 290.656 359.562 289.77 359.562 288.707C359.562 287.543 359.926 286.641 360.652 286C361.379 285.359 362.332 284.965 363.512 284.816L366.875 284.395ZM378.348 279.086C379.762 279.086 380.91 279.43 381.793 280.117C382.684 280.805 383.219 281.988 383.398 283.668H381.348C381.223 282.895 380.938 282.254 380.492 281.746C380.047 281.23 379.332 280.973 378.348 280.973C377.004 280.973 376.043 281.629 375.465 282.941C375.09 283.793 374.902 284.844 374.902 286.094C374.902 287.352 375.168 288.41 375.699 289.27C376.23 290.129 377.066 290.559 378.207 290.559C379.082 290.559 379.773 290.293 380.281 289.762C380.797 289.223 381.152 288.488 381.348 287.559H383.398C383.164 289.223 382.578 290.441 381.641 291.215C380.703 291.98 379.504 292.363 378.043 292.363C376.402 292.363 375.094 291.766 374.117 290.57C373.141 289.367 372.652 287.867 372.652 286.07C372.652 283.867 373.188 282.152 374.258 280.926C375.328 279.699 376.691 279.086 378.348 279.086ZM385.508 279.508H387.652V292H385.508V279.508ZM385.508 274.785H387.652V277.176H385.508V274.785ZM395.832 290.641C397.23 290.641 398.188 290.113 398.703 289.059C399.227 287.996 399.488 286.816 399.488 285.52C399.488 284.348 399.301 283.395 398.926 282.66C398.332 281.504 397.309 280.926 395.855 280.926C394.566 280.926 393.629 281.418 393.043 282.402C392.457 283.387 392.164 284.574 392.164 285.965C392.164 287.301 392.457 288.414 393.043 289.305C393.629 290.195 394.559 290.641 395.832 290.641ZM395.914 279.086C397.531 279.086 398.898 279.625 400.016 280.703C401.133 281.781 401.691 283.367 401.691 285.461C401.691 287.484 401.199 289.156 400.215 290.477C399.23 291.797 397.703 292.457 395.633 292.457C393.906 292.457 392.535 291.875 391.52 290.711C390.504 289.539 389.996 287.969 389.996 286C389.996 283.891 390.531 282.211 391.602 280.961C392.672 279.711 394.109 279.086 395.914 279.086ZM398.363 274.398L395.234 277.785H393.617L395.762 274.398H398.363ZM162.547 307.508H164.691V320H162.547V307.508ZM162.547 302.785H164.691V305.176H162.547V302.785ZM172.32 307.227C173.305 307.227 174.164 307.469 174.898 307.953C175.297 308.227 175.703 308.625 176.117 309.148V307.566H178.062V318.98C178.062 320.574 177.828 321.832 177.359 322.754C176.484 324.457 174.832 325.309 172.402 325.309C171.051 325.309 169.914 325.004 168.992 324.395C168.07 323.793 167.555 322.848 167.445 321.559H169.59C169.691 322.121 169.895 322.555 170.199 322.859C170.676 323.328 171.426 323.562 172.449 323.562C174.066 323.562 175.125 322.992 175.625 321.852C175.922 321.18 176.059 319.98 176.035 318.254C175.613 318.895 175.105 319.371 174.512 319.684C173.918 319.996 173.133 320.152 172.156 320.152C170.797 320.152 169.605 319.672 168.582 318.711C167.566 317.742 167.059 316.145 167.059 313.918C167.059 311.816 167.57 310.176 168.594 308.996C169.625 307.816 170.867 307.227 172.32 307.227ZM176.117 313.672C176.117 312.117 175.797 310.965 175.156 310.215C174.516 309.465 173.699 309.09 172.707 309.09C171.223 309.09 170.207 309.785 169.66 311.176C169.371 311.918 169.227 312.891 169.227 314.094C169.227 315.508 169.512 316.586 170.082 317.328C170.66 318.062 171.434 318.43 172.402 318.43C173.918 318.43 174.984 317.746 175.602 316.379C175.945 315.605 176.117 314.703 176.117 313.672ZM182.363 307.613H184.812V310.168H182.363V307.613ZM182.363 317.445H184.812V320H182.363V317.445ZM194.668 307.449H196.672V309.617C196.836 309.195 197.238 308.684 197.879 308.082C198.52 307.473 199.258 307.168 200.094 307.168C200.133 307.168 200.199 307.172 200.293 307.18C200.387 307.188 200.547 307.203 200.773 307.227V309.453C200.648 309.43 200.531 309.414 200.422 309.406C200.32 309.398 200.207 309.395 200.082 309.395C199.02 309.395 198.203 309.738 197.633 310.426C197.062 311.105 196.777 311.891 196.777 312.781V320H194.668V307.449ZM207.582 318.641C208.98 318.641 209.938 318.113 210.453 317.059C210.977 315.996 211.238 314.816 211.238 313.52C211.238 312.348 211.051 311.395 210.676 310.66C210.082 309.504 209.059 308.926 207.605 308.926C206.316 308.926 205.379 309.418 204.793 310.402C204.207 311.387 203.914 312.574 203.914 313.965C203.914 315.301 204.207 316.414 204.793 317.305C205.379 318.195 206.309 318.641 207.582 318.641ZM207.664 307.086C209.281 307.086 210.648 307.625 211.766 308.703C212.883 309.781 213.441 311.367 213.441 313.461C213.441 315.484 212.949 317.156 211.965 318.477C210.98 319.797 209.453 320.457 207.383 320.457C205.656 320.457 204.285 319.875 203.27 318.711C202.254 317.539 201.746 315.969 201.746 314C201.746 311.891 202.281 310.211 203.352 308.961C204.422 307.711 205.859 307.086 207.664 307.086ZM217.297 313.871C217.297 315.215 217.582 316.34 218.152 317.246C218.723 318.152 219.637 318.605 220.895 318.605C221.871 318.605 222.672 318.188 223.297 317.352C223.93 316.508 224.246 315.301 224.246 313.73C224.246 312.145 223.922 310.973 223.273 310.215C222.625 309.449 221.824 309.066 220.871 309.066C219.809 309.066 218.945 309.473 218.281 310.285C217.625 311.098 217.297 312.293 217.297 313.871ZM220.473 307.227C221.434 307.227 222.238 307.43 222.887 307.836C223.262 308.07 223.688 308.48 224.164 309.066V302.727H226.191V320H224.293V318.254C223.801 319.027 223.219 319.586 222.547 319.93C221.875 320.273 221.105 320.445 220.238 320.445C218.84 320.445 217.629 319.859 216.605 318.688C215.582 317.508 215.07 315.941 215.07 313.988C215.07 312.16 215.535 310.578 216.465 309.242C217.402 307.898 218.738 307.227 220.473 307.227ZM229.379 307.449H231.383V309.617C231.547 309.195 231.949 308.684 232.59 308.082C233.23 307.473 233.969 307.168 234.805 307.168C234.844 307.168 234.91 307.172 235.004 307.18C235.098 307.188 235.258 307.203 235.484 307.227V309.453C235.359 309.43 235.242 309.414 235.133 309.406C235.031 309.398 234.918 309.395 234.793 309.395C233.73 309.395 232.914 309.738 232.344 310.426C231.773 311.105 231.488 311.891 231.488 312.781V320H229.379V307.449ZM237.312 307.508H239.457V320H237.312V307.508ZM237.312 302.785H239.457V305.176H237.312V302.785ZM247.086 307.227C248.07 307.227 248.93 307.469 249.664 307.953C250.062 308.227 250.469 308.625 250.883 309.148V307.566H252.828V318.98C252.828 320.574 252.594 321.832 252.125 322.754C251.25 324.457 249.598 325.309 247.168 325.309C245.816 325.309 244.68 325.004 243.758 324.395C242.836 323.793 242.32 322.848 242.211 321.559H244.355C244.457 322.121 244.66 322.555 244.965 322.859C245.441 323.328 246.191 323.562 247.215 323.562C248.832 323.562 249.891 322.992 250.391 321.852C250.688 321.18 250.824 319.98 250.801 318.254C250.379 318.895 249.871 319.371 249.277 319.684C248.684 319.996 247.898 320.152 246.922 320.152C245.562 320.152 244.371 319.672 243.348 318.711C242.332 317.742 241.824 316.145 241.824 313.918C241.824 311.816 242.336 310.176 243.359 308.996C244.391 307.816 245.633 307.227 247.086 307.227ZM250.883 313.672C250.883 312.117 250.562 310.965 249.922 310.215C249.281 309.465 248.465 309.09 247.473 309.09C245.988 309.09 244.973 309.785 244.426 311.176C244.137 311.918 243.992 312.891 243.992 314.094C243.992 315.508 244.277 316.586 244.848 317.328C245.426 318.062 246.199 318.43 247.168 318.43C248.684 318.43 249.75 317.746 250.367 316.379C250.711 315.605 250.883 314.703 250.883 313.672ZM258.125 307.449V315.781C258.125 316.422 258.227 316.945 258.43 317.352C258.805 318.102 259.504 318.477 260.527 318.477C261.996 318.477 262.996 317.82 263.527 316.508C263.816 315.805 263.961 314.84 263.961 313.613V307.449H266.07V320H264.078L264.102 318.148C263.828 318.625 263.488 319.027 263.082 319.355C262.277 320.012 261.301 320.34 260.152 320.34C258.363 320.34 257.145 319.742 256.496 318.547C256.145 317.906 255.969 317.051 255.969 315.98V307.449H258.125ZM274.602 307.168C275.492 307.168 276.355 307.379 277.191 307.801C278.027 308.215 278.664 308.754 279.102 309.418C279.523 310.051 279.805 310.789 279.945 311.633C280.07 312.211 280.133 313.133 280.133 314.398H270.934C270.973 315.672 271.273 316.695 271.836 317.469C272.398 318.234 273.27 318.617 274.449 318.617C275.551 318.617 276.43 318.254 277.086 317.527C277.461 317.105 277.727 316.617 277.883 316.062H279.957C279.902 316.523 279.719 317.039 279.406 317.609C279.102 318.172 278.758 318.633 278.375 318.992C277.734 319.617 276.941 320.039 275.996 320.258C275.488 320.383 274.914 320.445 274.273 320.445C272.711 320.445 271.387 319.879 270.301 318.746C269.215 317.605 268.672 316.012 268.672 313.965C268.672 311.949 269.219 310.312 270.312 309.055C271.406 307.797 272.836 307.168 274.602 307.168ZM277.965 312.723C277.879 311.809 277.68 311.078 277.367 310.531C276.789 309.516 275.824 309.008 274.473 309.008C273.504 309.008 272.691 309.359 272.035 310.062C271.379 310.758 271.031 311.645 270.992 312.723H277.965ZM281.797 318.336L289.238 309.336H282.348V307.449H292.074V309.172L284.68 318.113H292.297V320H281.797V318.336ZM296.07 313.871C296.07 315.215 296.355 316.34 296.926 317.246C297.496 318.152 298.41 318.605 299.668 318.605C300.645 318.605 301.445 318.188 302.07 317.352C302.703 316.508 303.02 315.301 303.02 313.73C303.02 312.145 302.695 310.973 302.047 310.215C301.398 309.449 300.598 309.066 299.645 309.066C298.582 309.066 297.719 309.473 297.055 310.285C296.398 311.098 296.07 312.293 296.07 313.871ZM299.246 307.227C300.207 307.227 301.012 307.43 301.66 307.836C302.035 308.07 302.461 308.48 302.938 309.066V302.727H304.965V320H303.066V318.254C302.574 319.027 301.992 319.586 301.32 319.93C300.648 320.273 299.879 320.445 299.012 320.445C297.613 320.445 296.402 319.859 295.379 318.688C294.355 317.508 293.844 315.941 293.844 313.988C293.844 312.16 294.309 310.578 295.238 309.242C296.176 307.898 297.512 307.227 299.246 307.227ZM313.32 307.168C314.211 307.168 315.074 307.379 315.91 307.801C316.746 308.215 317.383 308.754 317.82 309.418C318.242 310.051 318.523 310.789 318.664 311.633C318.789 312.211 318.852 313.133 318.852 314.398H309.652C309.691 315.672 309.992 316.695 310.555 317.469C311.117 318.234 311.988 318.617 313.168 318.617C314.27 318.617 315.148 318.254 315.805 317.527C316.18 317.105 316.445 316.617 316.602 316.062H318.676C318.621 316.523 318.438 317.039 318.125 317.609C317.82 318.172 317.477 318.633 317.094 318.992C316.453 319.617 315.66 320.039 314.715 320.258C314.207 320.383 313.633 320.445 312.992 320.445C311.43 320.445 310.105 319.879 309.02 318.746C307.934 317.605 307.391 316.012 307.391 313.965C307.391 311.949 307.938 310.312 309.031 309.055C310.125 307.797 311.555 307.168 313.32 307.168ZM316.684 312.723C316.598 311.809 316.398 311.078 316.086 310.531C315.508 309.516 314.543 309.008 313.191 309.008C312.223 309.008 311.41 309.359 310.754 310.062C310.098 310.758 309.75 311.645 309.711 312.723H316.684ZM322.707 316.062C322.77 316.766 322.945 317.305 323.234 317.68C323.766 318.359 324.688 318.699 326 318.699C326.781 318.699 327.469 318.531 328.062 318.195C328.656 317.852 328.953 317.324 328.953 316.613C328.953 316.074 328.715 315.664 328.238 315.383C327.934 315.211 327.332 315.012 326.434 314.785L324.758 314.363C323.688 314.098 322.898 313.801 322.391 313.473C321.484 312.902 321.031 312.113 321.031 311.105C321.031 309.918 321.457 308.957 322.309 308.223C323.168 307.488 324.32 307.121 325.766 307.121C327.656 307.121 329.02 307.676 329.855 308.785C330.379 309.488 330.633 310.246 330.617 311.059H328.625C328.586 310.582 328.418 310.148 328.121 309.758C327.637 309.203 326.797 308.926 325.602 308.926C324.805 308.926 324.199 309.078 323.785 309.383C323.379 309.688 323.176 310.09 323.176 310.59C323.176 311.137 323.445 311.574 323.984 311.902C324.297 312.098 324.758 312.27 325.367 312.418L326.762 312.758C328.277 313.125 329.293 313.48 329.809 313.824C330.629 314.363 331.039 315.211 331.039 316.367C331.039 317.484 330.613 318.449 329.762 319.262C328.918 320.074 327.629 320.48 325.895 320.48C324.027 320.48 322.703 320.059 321.922 319.215C321.148 318.363 320.734 317.312 320.68 316.062H322.707ZM333.453 307.508H335.598V320H333.453V307.508ZM333.453 302.785H335.598V305.176H333.453V302.785ZM343.227 307.227C344.211 307.227 345.07 307.469 345.805 307.953C346.203 308.227 346.609 308.625 347.023 309.148V307.566H348.969V318.98C348.969 320.574 348.734 321.832 348.266 322.754C347.391 324.457 345.738 325.309 343.309 325.309C341.957 325.309 340.82 325.004 339.898 324.395C338.977 323.793 338.461 322.848 338.352 321.559H340.496C340.598 322.121 340.801 322.555 341.105 322.859C341.582 323.328 342.332 323.562 343.355 323.562C344.973 323.562 346.031 322.992 346.531 321.852C346.828 321.18 346.965 319.98 346.941 318.254C346.52 318.895 346.012 319.371 345.418 319.684C344.824 319.996 344.039 320.152 343.062 320.152C341.703 320.152 340.512 319.672 339.488 318.711C338.473 317.742 337.965 316.145 337.965 313.918C337.965 311.816 338.477 310.176 339.5 308.996C340.531 307.816 341.773 307.227 343.227 307.227ZM347.023 313.672C347.023 312.117 346.703 310.965 346.062 310.215C345.422 309.465 344.605 309.09 343.613 309.09C342.129 309.09 341.113 309.785 340.566 311.176C340.277 311.918 340.133 312.891 340.133 314.094C340.133 315.508 340.418 316.586 340.988 317.328C341.566 318.062 342.34 318.43 343.309 318.43C344.824 318.43 345.891 317.746 346.508 316.379C346.852 315.605 347.023 314.703 347.023 313.672ZM352.156 307.449H354.16V309.23C354.754 308.496 355.383 307.969 356.047 307.648C356.711 307.328 357.449 307.168 358.262 307.168C360.043 307.168 361.246 307.789 361.871 309.031C362.215 309.711 362.387 310.684 362.387 311.949V320H360.242V312.09C360.242 311.324 360.129 310.707 359.902 310.238C359.527 309.457 358.848 309.066 357.863 309.066C357.363 309.066 356.953 309.117 356.633 309.219C356.055 309.391 355.547 309.734 355.109 310.25C354.758 310.664 354.527 311.094 354.418 311.539C354.316 311.977 354.266 312.605 354.266 313.426V320H352.156V307.449ZM363.969 323V321.816H377.316V323H363.969ZM377.328 323V321.816H390.676V323H377.328ZM161.625 343C161.69 341.796 161.938 340.747 162.367 339.855C162.803 338.964 163.65 338.153 164.906 337.424L166.781 336.34C167.621 335.852 168.21 335.435 168.549 335.09C169.083 334.549 169.35 333.931 169.35 333.234C169.35 332.421 169.105 331.776 168.617 331.301C168.129 330.819 167.478 330.578 166.664 330.578C165.46 330.578 164.626 331.034 164.164 331.945C163.917 332.434 163.78 333.111 163.754 333.977H161.967C161.986 332.759 162.211 331.766 162.641 330.998C163.402 329.644 164.747 328.967 166.674 328.967C168.275 328.967 169.444 329.4 170.18 330.266C170.922 331.132 171.293 332.095 171.293 333.156C171.293 334.276 170.899 335.233 170.111 336.027C169.656 336.49 168.839 337.049 167.66 337.707L166.322 338.449C165.684 338.801 165.183 339.136 164.818 339.455C164.167 340.021 163.757 340.65 163.588 341.34H171.225V343H161.625ZM177.543 329.016C179.353 329.016 180.661 329.761 181.469 331.252C182.094 332.404 182.406 333.983 182.406 335.988C182.406 337.889 182.123 339.462 181.557 340.705C180.736 342.489 179.395 343.381 177.533 343.381C175.854 343.381 174.604 342.652 173.783 341.193C173.1 339.976 172.758 338.342 172.758 336.291C172.758 334.702 172.963 333.339 173.373 332.199C174.141 330.077 175.531 329.016 177.543 329.016ZM177.523 341.779C178.435 341.779 179.161 341.376 179.701 340.568C180.242 339.761 180.512 338.257 180.512 336.057C180.512 334.468 180.316 333.163 179.926 332.141C179.535 331.112 178.777 330.598 177.65 330.598C176.615 330.598 175.857 331.086 175.375 332.062C174.9 333.033 174.662 334.465 174.662 336.359C174.662 337.785 174.815 338.931 175.121 339.797C175.59 341.118 176.391 341.779 177.523 341.779ZM183.891 343C183.956 341.796 184.203 340.747 184.633 339.855C185.069 338.964 185.915 338.153 187.172 337.424L189.047 336.34C189.887 335.852 190.476 335.435 190.814 335.09C191.348 334.549 191.615 333.931 191.615 333.234C191.615 332.421 191.371 331.776 190.883 331.301C190.395 330.819 189.743 330.578 188.93 330.578C187.725 330.578 186.892 331.034 186.43 331.945C186.182 332.434 186.046 333.111 186.02 333.977H184.232C184.252 332.759 184.477 331.766 184.906 330.998C185.668 329.644 187.012 328.967 188.939 328.967C190.541 328.967 191.71 329.4 192.445 330.266C193.188 331.132 193.559 332.095 193.559 333.156C193.559 334.276 193.165 335.233 192.377 336.027C191.921 336.49 191.104 337.049 189.926 337.707L188.588 338.449C187.95 338.801 187.449 339.136 187.084 339.455C186.433 340.021 186.023 340.65 185.854 341.34H193.49V343H183.891ZM196.869 339.436C196.986 340.438 197.452 341.132 198.266 341.516C198.682 341.711 199.164 341.809 199.711 341.809C200.753 341.809 201.524 341.477 202.025 340.812C202.527 340.148 202.777 339.413 202.777 338.605C202.777 337.629 202.478 336.874 201.879 336.34C201.286 335.806 200.574 335.539 199.74 335.539C199.135 335.539 198.614 335.656 198.178 335.891C197.748 336.125 197.38 336.451 197.074 336.867L195.551 336.779L196.615 329.25H203.881V330.949H197.934L197.338 334.836C197.663 334.589 197.973 334.403 198.266 334.279C198.786 334.064 199.389 333.957 200.072 333.957C201.355 333.957 202.442 334.37 203.334 335.197C204.226 336.024 204.672 337.072 204.672 338.342C204.672 339.663 204.262 340.829 203.441 341.838C202.628 342.847 201.326 343.352 199.535 343.352C198.396 343.352 197.387 343.033 196.508 342.395C195.635 341.75 195.147 340.764 195.043 339.436H196.869Z" fill="white"/>
</svg>
